<?xml version="1.0" standalone="no"?>
<!DOCTYPE svg PUBLIC "-//W3C//DTD SVG 20010904//EN"
 "http://www.w3.org/TR/2001/REC-SVG-20010904/DTD/svg10.dtd">
<svg version="1.0" xmlns="http://www.w3.org/2000/svg"
 width="512.000000pt" height="512.000000pt" viewBox="0 0 512.000000 512.000000"
 preserveAspectRatio="xMidYMid meet">
<metadata>
Created by potrace 1.16, written by Peter Selinger 2001-2019
</metadata>
<g transform="translate(0.000000,512.000000) scale(0.100000,-0.100000)"
fill="#000000" stroke="none">
<path d="M360 5101 c-91 -29 -142 -61 -211 -130 -70 -70 -106 -130 -133 -220
-14 -50 -16 -255 -16 -2191 0 -2343 -4 -2173 58 -2295 32 -64 143 -175 207
-207 122 -62 -48 -58 2295 -58 2343 0 2173 -4 2295 58 64 32 175 143 207 207
62 122 58 -48 58 2295 0 2343 4 2173 -58 2295 -32 64 -143 175 -207 207 -122
62 49 58 -2299 57 -2024 0 -2144 -1 -2196 -18z m4150 -2541 l0 -1950 -1950 0
-1950 0 0 1950 0 1950 1950 0 1950 0 0 -1950z"/>
<path d="M760 2555 l0 -1805 1805 0 1805 0 0 1805 0 1805 -1805 0 -1805 0 0
-1805z m2553 -2 c307 -780 557 -1421 557 -1425 0 -5 -78 -8 -174 -8 l-174 0
-10 28 c-10 27 -274 722 -287 755 -7 16 -45 17 -664 15 l-656 -3 -150 -395
-151 -395 -176 -3 -176 -2 74 187 c40 104 293 745 561 1426 l487 1237 191 0
191 0 557 -1417z"/>
<path d="M2545 3588 c-9 -24 -475 -1234 -530 -1380 -7 -17 23 -18 545 -18
l552 0 -5 21 c-16 61 -532 1409 -539 1409 -5 0 -15 -15 -23 -32z"/>
</g>
</svg>